<svg xmlns="http://www.w3.org/2000/svg" width="920" height="346" viewBox="0 0 920 346">
<style>
text { font-family: -apple-system, BlinkMacSystemFont, 'Segoe UI', sans-serif; fill: #dbe4ee; }
.muted { fill: #94a3b8; font-size: 12px; }
.label { font-size: 13px; font-weight: 600; }
.value { font-size: 13px; text-anchor: end; }
.title { font-size: 16px; font-weight: 700; }
</style>
<rect x="0" y="0" width="920" height="346" fill="#0b1220"/>
<text x="24" y="30" class="title">Desk Net P&amp;L (USD)</text>
<line x1="430" y1="44" x2="430" y2="330" stroke="#334155" stroke-width="1"/>
<text x="422" y="40" class="muted" text-anchor="end">Loss</text>
<text x="438" y="40" class="muted">Gain</text>
<text x="24" y="76" class="label">Boulton</text>
<rect x="425.68" y="62" width="4.32" height="18" rx="4" fill="#ef4444"/>
<text x="892" y="76" class="value">$-32.46</text>
<text x="24" y="130" class="label">Dundas</text>
<rect x="150.00" y="116" width="280.00" height="18" rx="4" fill="#ef4444"/>
<text x="892" y="130" class="value">$-2,103.56</text>
<text x="24" y="184" class="label">Gerrard</text>
<rect x="240.92" y="170" width="189.08" height="18" rx="4" fill="#ef4444"/>
<text x="892" y="184" class="value">$-1,420.51</text>
<text x="24" y="238" class="label">Logan</text>
<rect x="430" y="224" width="123.35" height="18" rx="4" fill="#22c55e"/>
<text x="892" y="238" class="value">$926.71</text>
<text x="24" y="292" class="label">Westin</text>
<rect x="392.73" y="278" width="37.27" height="18" rx="4" fill="#ef4444"/>
<text x="892" y="292" class="value">$-280.01</text>
</svg>
